<?xml version="1.0" standalone="no"?>
<!DOCTYPE svg PUBLIC "-//W3C//DTD SVG 1.1//EN" "http://www.w3.org/Graphics/SVG/1.1/DTD/svg11.dtd" >
<svg xmlns="http://www.w3.org/2000/svg">
<metadata>
Created by FontForge 20120731 at Sat Jul 29 08:53:47 2017
 By admin
</metadata>
<defs>
<font id="iconfont" horiz-adv-x="1024" >
  <font-face 
    font-family="iconfont"
    font-weight="500"
    font-stretch="normal"
    units-per-em="1024"
    panose-1="2 0 6 3 0 0 0 0 0 0"
    ascent="896"
    descent="-128"
    x-height="792"
    bbox="0 -128 1031 896"
    underline-thickness="0"
    underline-position="0"
    unicode-range="U+0078-E900"
  />
<missing-glyph 
 />
    <glyph glyph-name=".notdef" 
 />
    <glyph glyph-name=".notdef" 
 />
    <glyph glyph-name=".null" horiz-adv-x="0" 
 />
    <glyph glyph-name="nonmarkingreturn" horiz-adv-x="341" 
 />
    <glyph glyph-name="x" unicode="x" horiz-adv-x="1001" 
d="M281 543q-27 -1 -53 -1h-83q-18 0 -36.5 -6t-32.5 -18.5t-23 -32t-9 -45.5v-76h912v41q0 16 -0.5 30t-0.5 18q0 13 -5 29t-17 29.5t-31.5 22.5t-49.5 9h-133v-97h-438v97zM955 310v-52q0 -23 0.5 -52t0.5 -58t-10.5 -47.5t-26 -30t-33 -16t-31.5 -4.5q-14 -1 -29.5 -0.5
t-29.5 0.5h-32l-45 128h-439l-44 -128h-29h-34q-20 0 -45 1q-25 0 -41 9.5t-25.5 23t-13.5 29.5t-4 30v167h911zM163 247q-12 0 -21 -8.5t-9 -21.5t9 -21.5t21 -8.5q13 0 22 8.5t9 21.5t-9 21.5t-22 8.5zM316 123q-8 -26 -14 -48q-5 -19 -10.5 -37t-7.5 -25t-3 -15t1 -14.5
t9.5 -10.5t21.5 -4h37h67h81h80h64h36q23 0 34 12t2 38q-5 13 -9.5 30.5t-9.5 34.5q-5 19 -11 39h-368zM336 498v228q0 11 2.5 23t10 21.5t20.5 15.5t34 6h188q31 0 51.5 -14.5t20.5 -52.5v-227h-327z" />
    <glyph glyph-name="cs" unicode="&#xe63d;" 
d="M510 765q-119 0 -203.5 -82.5t-84.5 -199.5t84.5 -199.5t204 -82.5t203.5 82.5t84 199.5t-84 199.5t-204 82.5v0zM177 375v260h-10q45 98 137.5 158t205.5 60t206 -60t138 -158h-11v-260q55 0 94 38t39 92q0 36 -18.5 66.5t-49.5 47.5q-43 122 -152 199.5t-245.5 77.5
t-245.5 -77t-152 -200q-32 -17 -50.5 -47.5t-18.5 -66.5q0 -54 39 -92t94 -38v0zM798 225q-58 -52 -132 -81.5t-156 -29.5t-155.5 29t-131.5 82q-104 -53 -163.5 -143t-59.5 -210h1024q0 120 -60.5 210.5t-165.5 142.5v0z" />
    <glyph glyph-name="custom" unicode="&#xe7a5;" 
d="M747 388q-1 -8 1.5 -16t5.5 -13l3 -4q21 -17 21 -44q0 -24 -17 -41t-41 -17t-41 17t-17 41q0 27 21 44q1 2 3.5 4.5t5.5 11.5t1.5 17t-6 13t-8.5 7l-4 1h-137v75q22 -11 48 -11q45 0 76.5 31.5t31.5 76.5t-31.5 77t-76.5 32q-26 0 -48 -12v87q0 16 -11.5 27.5t-27.5 11.5
h-368q-16 0 -27.5 -11.5t-11.5 -27.5v-394v-12v-356q0 -16 11.5 -27.5t27.5 -11.5h395h12h356q16 0 27.5 11.5t11.5 27.5v406h-168q-16 -4 -18 -21v0zM487 753v-122l0.5 -1.5t2 -4t4 -4.5t7 -4t10.5 -3q8 -1 16 1t11 5l3 3q18 21 45 21q26 0 44.5 -16.5t18.5 -46t-18.5 -46
t-44.5 -16.5q-27 0 -45 21q-1 1 -4 2.5t-11 3.5t-15.5 1t-13 -5t-7.5 -8l-2 -3l-1 -122h-75q11 23 11 48q0 45 -31.5 77t-76.5 32t-77 -32t-32 -77q0 -25 12 -48h-75v344h344v0zM487 15h-344v344h98v0h24q1 0 2 0.5t3.5 2t4.5 4t4.5 7t2.5 9.5q2 9 -0.5 16.5t-5.5 11.5l-3 3
q-21 17 -21 44q0 26 16.5 44.5t46 18.5t46.5 -18.5t17 -44.5q0 -27 -21 -44q-2 -2 -3.5 -4.5t-3.5 -10.5t-0.5 -15.5t5.5 -13.5t7 -8l3 -2h31v0h91v-90q-23 12 -48 12q-45 0 -74.5 -29.5t-29.5 -74.5t29.5 -74t74.5 -29q25 0 48 11v-70v0zM812 359h70v-344h-344v93v0v23
q-4 17 -22 19q-8 1 -16 -1.5t-12 -5.5l-5 -3q-17 -21 -44 -21q-24 0 -41 17t-17 41t17 41t41 17q27 0 44 -21q2 -2 5 -4t11.5 -5t16.5 -1.5t13.5 6t6.5 8.5l2 4v132v5h89q-11 -23 -11 -48q0 -45 29.5 -74.5t74.5 -29.5t74 29.5t29 74.5q0 25 -11 48v0z" />
    <glyph glyph-name="price" unicode="&#xe679;" 
d="M512 834q-122 0 -225.5 -60.5t-164 -164t-60.5 -225.5t60.5 -225.5t164 -164t225.5 -60.5t225.5 60.5t164 164t60.5 225.5t-60.5 225.5t-164 164t-225.5 60.5zM512 -10q-107 0 -197.5 53t-143.5 143.5t-53 197.5t53 197.5t143.5 143.5t197.5 53t197.5 -53t143.5 -143.5
t53 -197.5t-53 -197.5t-143.5 -143.5t-197.5 -53zM542 346l26 46h113q8 0 13.5 5t5.5 13.5t-5.5 13.5t-13.5 5h-90l82 135q6 8 3.5 17.5t-10.5 12.5q-9 6 -18 3.5t-12 -11.5l-116 -194h-4h-4l-112 198q-20 20 -38 8q-19 -13 -8 -30l79 -135h-90q-19 -7 -19 -23q0 -8 5.5 -13
t13.5 -5h113l26 -46q0 -3 4 -3v-8h-143q-8 0 -13.5 -5t-5.5 -13.5t5.5 -13.5t13.5 -5h139v-102q0 -11 8.5 -20.5t21.5 -9.5q12 0 21 8.5t9 21.5v102h139q8 0 13.5 5t5.5 13.5t-5.5 13.5t-13.5 5h-139v11v0z" />
    <glyph glyph-name="mark" unicode="&#xe650;" 
d="M239 759h569q21 0 33 -12.5t12 -33.5v-728q0 -20 -14.5 -32.5t-35.5 -12.5l-279 194l-275 -194q-22 0 -39 12.5t-17 32.5v728q0 21 12.5 33.5t33.5 12.5z" />
    <glyph glyph-name="tel" unicode="&#xe600;" 
d="M933 448.5q-35 -43.5 -91.5 -49.5t-101 28t-51 89t28.5 98q7 8 17 17q-106 49 -220.5 48.5t-217.5 -48.5q37 -36 40.5 -86.5t-29.5 -90.5q-35 -44 -91 -50t-100.5 28t-51.5 89t29 98q23 29 60 42q106 78 235.5 105t261 -2t238.5 -112l-1 -2q12 -6 23 -14q44 -34 50.5 -89
t-28.5 -98.5zM375 572h104v-104h69v104h103v-104l242 -310v-173h-759v173l241 310v104zM341 278.5q0 -35.5 50.5 -61t122 -25.5t122 25.5t50.5 61t-50.5 61t-122 25.5t-122 -25.5t-50.5 -61z" />
    <glyph glyph-name="cart" unicode="&#xe63f;" 
d="M263 9q0 -26 18.5 -44.5t44.5 -18.5t44.5 18.5t18.5 44.5t-18.5 44.5t-44.5 18.5t-44.5 -18.5t-18.5 -44.5zM704 9q0 -26 18.5 -44.5t44.5 -18.5t44.5 18.5t18.5 44.5t-18.5 44.5t-44.5 18.5t-44.5 -18.5t-18.5 -44.5zM881 147h-504q-20 0 -37.5 15.5t-22.5 35.5l-90 531
q-7 38 -38.5 64t-69.5 26h-21q-9 0 -16.5 -7.5t-7.5 -16.5t7.5 -16.5t16.5 -7.5h21q20 0 37.5 -15.5t22.5 -35.5l90 -531q7 -38 38.5 -64t69.5 -26h504q9 0 16.5 7.5t7.5 16.5q0 10 -6.5 17t-17.5 7zM857 696h-537q-9 0 -16.5 -7.5t-7.5 -16.5t7.5 -16.5t16.5 -7.5h537
q18 0 26 -10.5t4 -28.5l-66 -264q-4 -22 -25 -38.5t-44 -18.5l-372 -27q-9 0 -16 -8t-5 -19q0 -9 8 -16t19 -5l372 27q38 2 70 29.5t41 63.5l66 264q9 39 -14.5 69t-63.5 30z" />
    <glyph glyph-name="supplier" unicode="&#xe685;" 
d="M814 247q-16 35 -69 47q-33 8 -51 13.5t-25.5 11.5t-7 10t4.5 13q76 144 25 229q-37 61 -116 61q-37 0 -67.5 -16t-48.5 -45q-25 -42 -18.5 -101.5t44.5 -127.5q4 -9 4.5 -13.5t-6.5 -10t-25.5 -11t-51.5 -13.5q-53 -12 -69 -47q-2 -4 -3.5 -9t-2.5 -9t-1.5 -11t-1 -11.5
t-0.5 -14v-15.5v-19v-21h495v21.5v19v15t-0.5 14t-1 11.5t-1.5 11t-2.5 9t-3.5 9zM382 191q0 33 6.5 43.5t32.5 16.5t38 9.5t30.5 10t29 15.5t15.5 22q12 25 -6 57q-29 55 -35.5 101t10.5 75q22 37 72 37t72 -36q37 -61 -25 -177q-17 -32 -5 -58q6 -12 16 -21t28.5 -15.5
t30.5 -10t38 -9.5t32.5 -16.5t6.5 -43.5h-387zM145 803v-77h55v16q0 6 6 6h663q6 0 6 -6v-710q0 -6 -6 -6h-663q-6 0 -6 6v9h-55v-76h785v838h-785zM243 253h-151v-156h151q5 0 5 6v144q0 6 -5 6zM193 158q0 -6 -6 -6h-34q-6 0 -6 6v34q0 5 6 5h34q6 0 6 -5v-34zM243 463
h-151v-157h151q5 0 5 6v145q0 6 -5 6zM193 367q0 -5 -6 -5h-34q-6 0 -6 5v34q0 6 6 6h34q6 0 6 -6v-34zM243 672h-151v-156h151q5 0 5 6v145q0 5 -5 5zM193 577q0 -6 -6 -6h-34q-6 0 -6 6v34q0 6 6 6h34q6 0 6 -6v-34z" />
    <glyph glyph-name="inventory" unicode="&#xe64c;" 
d="M960 522l-422 297q-5 5 -11 7q-9 6 -20.5 3t-18.5 -13l-420 -296q-10 -6 -11 -19t6.5 -24t20.5 -14t22 3l28 22v-488q0 -14 10 -23.5t23 -9.5t23 9.5t10 23.5v534l315 220l318 -223v-529q0 -14 9.5 -24t23.5 -10t23.5 10t9.5 24v481l23 -15q10 -7 22 -4t19.5 14.5t7 24
t-10.5 19.5v0v0zM362 72h-54q-16 0 -21 -5t-5 -21v-55q0 -16 5 -20.5t21 -4.5h54q16 0 21 4.5t5 20.5v55q-2 16 -6.5 21t-19.5 5v0v0zM362 254h-54q-16 0 -21 -5t-5 -21v-54q0 -16 5 -21t21 -5h54q16 0 21 5t5 21v56q-2 14 -6.5 19t-19.5 5v0v0zM542 72h-54q-16 0 -21 -5
t-5 -21v-55q0 -16 5 -20.5t21 -4.5h54q16 0 21 4.5t5 20.5v55q-2 16 -6.5 21t-19.5 5v0v0zM722 72h-54q-16 0 -21 -5t-5 -21v-55q0 -16 5 -20.5t21 -4.5h54q16 0 21 4.5t5 20.5v55q-2 16 -6.5 21t-19.5 5v0v0zM542 254h-54q-16 0 -21 -5t-5 -21v-54q0 -16 5 -21t21 -5h54
q16 0 21 5t5 21v56q-2 14 -6.5 19t-19.5 5v0v0zM362 435h-54q-16 0 -21 -5t-5 -20v-56q0 -16 5 -21t21 -5h54q16 0 21 5t5 21v56q-2 16 -6.5 20.5t-19.5 4.5v0v0zM533 318z" />
    <glyph glyph-name="good" unicode="&#xe608;" 
d="M512 -96q-20 0 -36 9l-374 214q-16 9 -26.5 26.5t-10.5 36.5v388q0 19 10.5 36.5t26.5 26.5l374 214q15 9 35.5 9t36.5 -9l374 -214q16 -9 26.5 -26.5t10.5 -36.5v-388q0 -19 -10.5 -36.5t-26.5 -26.5l-374 -214q-16 -9 -36 -9zM143 193l369 -211l369 211v382l-369 211
l-369 -211v-382zM512 335q-8 0 -15 5l-408 240q-10 7 -13 18.5t3 22t18 13.5t22 -3l408 -241q10 -6 13 -18t-3 -22q-8 -15 -25 -15zM726 471q-8 0 -15 4l-389 230q-11 6 -14 18t3.5 22.5t18 13.5t21.5 -4l389 -229q11 -7 14 -18.5t-3 -21.5q-9 -15 -25 -15zM512 335
q-17 0 -25 15q-6 10 -3 22t13 18l408 241q10 6 22 3t18 -13.5t3 -22t-13 -18.5l-408 -241q-7 -4 -15 -4zM522 -92q-12 0 -20.5 8.5t-8.5 20.5v428q0 12 8.5 20.5t20.5 8.5t20.5 -8.5t8.5 -20.5v-428q0 -12 -8.5 -20.5t-20.5 -8.5z" />
    <glyph glyph-name="plate" unicode="&#xe61b;" horiz-adv-x="1229" 
d="M883 669h-594q-61 0 -104.5 -43t-43.5 -105v-445q0 -61 43.5 -104.5t104.5 -43.5h594q61 0 104.5 43.5t43.5 104.5v445q0 62 -43.5 105t-104.5 43v0zM289 -35q-46 0 -78.5 32.5t-32.5 78.5v445q0 46 32.5 78.5t78.5 32.5h594q46 0 78.5 -32.5t32.5 -78.5v-445
q0 -46 -32.5 -78.5t-78.5 -32.5h-594v0zM883 558q-16 0 -26.5 -11t-10.5 -26t10.5 -26t26 -11t26.5 11t11 26t-11 26t-26 11v0zM290 558q-16 0 -27 -11t-11 -26t11 -26t26.5 -11t26.5 11t11 26t-11 26t-26 11v0zM864 299h-308q-8 0 -13.5 -5.5t-5.5 -13.5t5.5 -13t13.5 -5
h308q8 0 13.5 5t5.5 13t-5.5 13.5t-13.5 5.5v0zM440 299h-95q-8 0 -13 -5.5t-5 -13.5t5 -13t13 -5h95q8 0 13 5t5 13t-5 13.5t-13 5.5v0zM883 113q-16 0 -26.5 -10.5t-10.5 -26t10.5 -26.5t26 -11t26.5 11t11 26.5t-11 26t-26 10.5v0zM290 113q-16 0 -27 -10.5t-11 -26
t11 -26.5t26.5 -11t26.5 11t11 26.5t-11 26t-26 10.5v0z" />
    <glyph glyph-name="history" unicode="&#xe829;" 
d="M961 393q0 70 -26 144q-29 82 -86 145q-32 36 -86 72.5t-99 53.5q-49 17 -105 23q-24 2 -37 2q-1 0 -3 0.5t-3 0.5h-7q-1 0 -3 -0.5t-3 -0.5q-75 -1 -143 -26q-82 -30 -146 -87q-86 -75 -126 -183q-17 -49 -23 -106q-2 -25 -2 -37q0 -5 -1 -7v-7q0 -1 0.5 -2.5t0.5 -2.5
q1 -76 26 -143q29 -79 81 -140q79 -91 189 -131q52 -18 106 -24q25 -2 37 -2l2.5 -0.5t3.5 -0.5h7q1 0 2.5 0.5t2.5 0.5q76 2 143 26q83 30 146 87q86 76 125 184q19 51 25 105q2 24 2 38q0 4 1 6v7q0 1 -0.5 3zM507 -28.5q-112 1.5 -206.5 58t-148.5 152t-52.5 207.5
t58 206.5t152 148.5t208.5 52q112 -1 206 -57.5t148.5 -152t52.5 -207.5t-58.5 -206t-152 -148.5t-207.5 -53zM488 675h47v-314h-47v314zM488 408h314v-47h-314v47z" />
    <glyph glyph-name="close" unicode="&#xe607;" 
d="M745 619q-10 10 -24 3q-3 -1 -5 -3v0l-441 -441q-4 -4 -5 -8q-4 -13 4.5 -21.5t21.5 -4.5q4 2 8 5l441 441q2 2 3 5q8 14 -3 24zM745 149q10 10 3 24q-1 3 -3 5v0l-441 441q-4 3 -8 5q-13 4 -21.5 -5t-4.5 -21q1 -5 5 -8l441 -441q2 -2 4 -3q14 -8 25 3z" />
    <glyph glyph-name="order" unicode="&#xe68e;" 
d="M817 792h-56q-13 0 -23 -7t-10 -18q0 -12 10.5 -21.5t22.5 -9.5h56q25 0 40.5 -15.5t15.5 -40.5v-643q0 -25 -15.5 -40.5t-40.5 -15.5h-602q-26 0 -48 16t-22 40v643q0 25 15.5 40.5t40.5 15.5h70q22 0 22 31q0 25 -22 25h-70q-56 0 -84 -31t-28 -82v-636q0 -53 31 -85.5
t87 -32.5h604q57 0 87.5 30t30.5 88v636q0 50 -29.5 81.5t-82.5 31.5v0zM271 540q0 -12 8.5 -20.5t20.5 -8.5h419q12 0 20.5 8.5t8.5 20t-8.5 20t-20.5 8.5h-419q-12 0 -20.5 -8.5t-8.5 -19.5v0zM718 414h-418q-12 0 -20.5 -8.5t-8.5 -20t8.5 -20t20.5 -8.5h419
q12 0 20.5 8.5t8.5 19.5q-1 13 -9.5 21t-20.5 8v0zM718 246h-418q-12 0 -20.5 -8.5t-8.5 -20t8.5 -20t20.5 -8.5h419q12 0 20.5 8.5t8.5 20.5q-1 12 -9.5 20t-20.5 8v0zM413 722h195q16 0 28.5 14.5t12.5 34t-12.5 34t-30.5 14.5h-193q-18 0 -30.5 -14.5t-12.5 -34t12.5 -34
t30.5 -14.5v0z" />
    <glyph glyph-name="qq" unicode="&#xe62e;" 
d="M512 896q-139 0 -257 -68.5t-186.5 -186.5t-68.5 -257t68.5 -257t186.5 -186.5t257 -68.5t257 68.5t186.5 186.5t68.5 257t-68.5 257t-186.5 186.5t-257 68.5zM801 227q-13 -11 -34 24q-18 25 -20 25q0 -1 -3 -10t-3.5 -11t-3.5 -9.5t-4.5 -10t-5 -9t-6.5 -10.5l-7.5 -10
t-9.5 -12q-1 -1 2.5 -3t9 -5t11.5 -8t11.5 -11.5t8.5 -14.5q4 -9 5 -12.5t2 -12.5t-1 -13.5t-8.5 -12.5t-17.5 -12.5t-29.5 -9.5t-43.5 -7q-47 -5 -94 18q-8 4 -16.5 9t-12.5 7.5t-5 2.5h-16h-8.5h-8.5l-4 -3.5t-13 -9t-22.5 -11t-38 -9.5t-54.5 -4q-56 0 -78.5 27.5
t-8.5 52.5q7 12 18.5 21.5t17.5 14t5 5.5q-41 47 -52 108l1 -1l3 -12l-1 3q-1 9 -1 16q4 -29 -12 -56q-14 -27 -26 -27q-5 0 -8 3q-17 13 -18 44.5t12 64.5q7 19 21 41.5t24.5 37t11.5 18.5q0 14 -0.5 26.5t-1 14.5t1.5 9q4 12 10.5 15.5t6.5 8.5q0 102 66 174t159 72
t159 -72t66 -174q0 -2 3.5 -3t9 -5.5t7.5 -15.5q3 -11 1 -50q0 -5 9 -14.5t22.5 -31t20.5 -51.5q10 -33 8 -57t-6.5 -35.5t-10.5 -16.5z" />
    <glyph glyph-name="phone" unicode="&#xe63e;" 
d="M743 -74h-462q-35 0 -59 24t-24 58v624q0 34 24 58t59 24h462q35 0 59 -24t24 -58v-624q0 -34 -24 -58t-59 -24zM281 680q-20 0 -34.5 -14t-14.5 -34v-624q0 -20 14.5 -34t34.5 -14h462q20 0 34.5 14t14.5 34v624q0 20 -14.5 34t-34.5 14h-462zM604 52h-184q-7 0 -12 5
t-5 12t5 12.5t12 5.5h184q7 0 12 -5.5t5 -12.5t-5 -12t-12 -5z" />
    <glyph glyph-name="rectadd" unicode="&#xe8de;" 
d="M832 704v-640h-640v640h640zM864 768h-704q-13 0 -22.5 -9.5t-9.5 -22.5v-704q0 -13 9.5 -22.5t22.5 -9.5h704q13 0 22.5 9.5t9.5 22.5v704q0 13 -9.5 22.5t-22.5 9.5zM768 414h-223v226h-66v-226h-223v-65h223v-221h66v221h223v65z" />
    <glyph glyph-name="add" unicode="&#xe8e1;" 
d="M896 416h-351v352h-66v-352h-351v-66h351v-350h66v350h351v66z" />
    <glyph glyph-name="location" unicode="&#xe8ff;" 
d="M512 832q-154 0 -263 -109t-109 -263q0 -75 28.5 -142.5t78.5 -119.5l265 -262l264 263q51 52 79 119t28 143q1 101 -49 186.5t-135.5 135t-186.5 49.5zM640 501q-4 -47 -37 -80t-80 -37q-56 -5 -97 33.5t-41 93.5q0 53 37.5 90.5t90.5 37.5q55 0 93.5 -41t33.5 -97z" />
    <glyph glyph-name="trend" unicode="&#xe636;" 
d="M106 181h151v-191h-151v191zM337 377h156v-387h-156v387zM569 303h154v-313h-154v313zM800 492h156v-502h-156v502zM64 371l360 331l207 -203l196 227l-71 75h200v-194l-70 72l-255 -308l-209 215l-308 -287z" />
    <glyph glyph-name="up" unicode="&#xe601;" 
d="M532 4q13 0 21.5 9t8.5 22v555q0 5 4 9t9 4h70q9 0 12.5 8t-2.5 14l-137 136q-9 9 -18 0l-136 -136q-6 -6 -3 -14t12 -8h70q6 0 9.5 -4t3.5 -9v-555q0 -13 9 -22t21 -9h46v0z" />
    <glyph glyph-name="demand" unicode="&#xe62f;" 
d="M209 837h413q13 0 24 -11l252 -251q10 -11 10 -25v-525q0 -39 -27 -66v-1h-1q-27 -27 -65 -27h-606q-38 0 -66 28v0q-27 27 -27 66v718q0 39 27 66q28 28 66 28zM324 120v109q0 8 6 15h1l224 225q6 6 15 6t15 -6l108 -109q7 -6 7 -14.5t-7 -15.5l-224 -224q-6 -7 -15 -7
h-109q-9 0 -15 6.5t-6 14.5zM375 229l79 -79l131 131l-79 79zM404 141l-38 38v-38h38zM615 310l34 35l-79 79l-35 -34zM601 767h-392q-9 0 -17 -7q-6 -7 -6 -17v-718q0 -10 6 -17q7 -7 17 -7h606q10 0 16 7h1q7 7 7 17v504h-159q-33 0 -56 23l-1 2q-22 23 -22 54v159z
M803 571l-161 161v-124q0 -15 10 -25l1 -1q11 -11 27 -11h123v0z" />
    <glyph glyph-name="baojia" unicode="&#xe602;" 
d="M244 372q-7 0 -14 6.5t-7 14.5v18q0 20 21 20h292q8 0 14.5 -6.5t6.5 -13.5v-18q0 -8 -6.5 -14.5t-14.5 -6.5h-292zM244 640q-8 0 -13 7t-6 13.5t-1 12.5q0 12 6 19.5t14 7.5h198q7 0 13 -7t6 -14v-18q0 -8 -6 -14.5t-13 -6.5h-198zM244 505q-7 0 -14 7t-7 15v18
q0 7 7 13.5t14 6.5h419q8 0 15 -6.5t7 -13.5v-17q0 -23 -28 -23h-413zM804 379q-13 0 -25 6t-12 19v304q0 20 -1 29.5t-8.5 18t-22.5 8.5h-563q-21 0 -26.5 -13.5t-5.5 -42.5v-657q0 -23 16 -40t40 -17h301q8 0 16.5 -13.5t8.5 -23.5t-8.5 -23t-16.5 -13h-325
q-45 0 -75.5 31.5t-30.5 74.5v705q0 42 32 74t74 32h563q46 0 76 -31.5t30 -74.5v-328q0 -11 -11 -18t-26 -7zM930 290q-65 64 -157.5 64t-156.5 -64t-64 -156.5t64 -157t156.5 -64.5t157 64.5t64.5 156.5q0 93 -64 157zM772.5 -35q-68.5 0 -118.5 50t-50 118.5t50 118.5
t119 50t119 -48q50 -49 50 -121q-1 -68 -51 -118t-118.5 -50zM842 136h-52v-29h52q6 0 10.5 -4t4.5 -10.5t-4.5 -10.5t-10.5 -4h-52v-34q0 -7 -5 -11.5t-12 -4.5t-12 4.5t-5 11.5v34h-52q-6 0 -10.5 4t-4.5 10.5t4.5 10.5t10.5 4h52v29h-52q-7 0 -11 4.5t-4 10.5t4 10t11 4
h38l-48 49q-8 8 3 19q5 6 12 6q4 0 7 -3l55 -55l56 55q2 3 7 3q6 0 12 -6q11 -11 2 -19l-48 -49h42q6 0 10.5 -4t4.5 -10t-4.5 -10.5t-10.5 -4.5zM639 402zM607 402q0 -14 9.5 -23.5t22.5 -9.5t22.5 9.5t9.5 23t-9.5 23t-22.5 9.5t-22.5 -9.5t-9.5 -22.5v0z" />
    <glyph glyph-name="member" unicode="&#xe752;" 
d="M246.5 -47q-13.5 0 -23 10t-9.5 23q0 132 78 237q71 94 180 134q-53 34 -83.5 90t-30.5 119q0 104 73.5 177t177 73t176.5 -73t73 -177q0 -65 -32 -121.5t-87 -91.5q25 -8 46 -18q58 -26 116 -84q103 -112 103 -265q0 -14 -10 -23.5t-23 -9.5q-14 0 -23.5 9.5t-9.5 23.5
q0 123 -81 217l-1 1q-41 49 -97 75q-31 14 -71 25.5t-62 12.5q-2 0 -5.5 -0.5t-5.5 -0.5h-6h-3q-89 0 -164.5 -44.5t-119 -120.5t-43.5 -165q0 -14 -9.5 -23.5t-23 -9.5zM608.5 751q-76.5 0 -130.5 -54.5t-54 -131t54 -130.5t130.5 -54t131 54t54.5 130.5t-54.5 131
t-131 54.5zM53.5 26q-13.5 0 -23.5 9.5t-10 23.5q0 103 56 189.5t147 125.5q-41 30 -64 77t-23 99q0 90 60.5 153t146.5 63q13 0 23 -9.5t10 -23t-10 -23t-23 -9.5q-58 0 -99.5 -44.5t-41.5 -107t41.5 -107t99.5 -44.5q14 0 23.5 -9.5t9.5 -23.5q0 -13 -10 -23t-23 -10
q-106 0 -181.5 -80.5t-75.5 -193.5q0 -13 -9.5 -22.5t-23 -9.5z" />
    <glyph glyph-name="review" unicode="&#xe671;" 
d="M845 194q-70 0 -148 45q-37 21 -58 45t-22 45q1 11 1 29q0 20 4 27q7 13 44 49q41 35 63.5 82.5t22.5 100.5q0 100 -71.5 170.5t-172 70.5t-172 -70.5t-71.5 -170.5q0 -53 22.5 -100.5t63.5 -82.5q36 -35 42.5 -46t6.5 -36v-22q0 -22 -21 -46t-59 -45q-78 -45 -148 -45
q-36 0 -61.5 -25t-25.5 -60v-67q0 -17 12.5 -29t29.5 -12h3v-44q0 -17 12.5 -29t29.5 -12h673q17 0 29.5 12t12.5 29v44h3v0q18 0 30 12t12 29v0v67q0 35 -25.5 60t-61.5 25zM168 109q0 3 4 3q43 0 95.5 15.5t97.5 41.5q57 34 87.5 75t30.5 86v22q0 44 -14 70q-13 25 -61 72
v0q-1 1 -3 2q-57 48 -57 121q0 66 47 112t113.5 46t113.5 -46t47 -112q0 -73 -57 -121q-1 0 -2 -1l-1 -1q-47 -47 -60 -70q-15 -25 -15 -66v-27v-1q0 -45 30.5 -86t87.5 -75q45 -26 97.5 -41.5t95.5 -15.5q4 0 4 -3v-26h-681v26zM844 -33h-671v0q-4 0 -4 4v32h679v-32v0
q0 -4 -4 -4v0z" />
    <glyph glyph-name="down" unicode="&#xe900;" 
d="M492 764q-13 0 -21.5 -9t-8.5 -22v-555q0 -5 -4 -9t-9 -4h-70q-9 0 -12.5 -8t2.5 -14l137 -136q9 -9 18 0l136 136q6 6 3 14t-12 8h-70q-6 0 -9.5 4t-3.5 9v555q0 13 -9 22t-21 9h-46z" />
  </font>
</defs>
</svg>
